<?xml version="1.0" encoding="UTF-8"?>
<svg id="_レイヤー_2" data-name="レイヤー 2" xmlns="http://www.w3.org/2000/svg" version="1.1" viewBox="0 0 512 512">
  <defs>
    <style>
      .cls-1 {
        fill: #000;
        stroke-width: 0px;
      }
    </style>
  </defs>
  <path class="cls-1" d="M269.3,26.3c35,5.7,63.5,22.1,86.5,48.2,14.9,17,29.3,34.5,44.7,51.1,15.9,17.2,35.2,30.2,57.1,39,6.9,2.7,13.5,5.9,19.5,10.3,12.3,9,18.6,21.3,18.9,36.2,1.3,53.1-33.3,117.2-106.8,130.3-12.7,2.3-25.5,2.9-38.4,2.7-3.1,0-6.3,0-9.3.6-11.2,2-15,7.9-12.6,19.1,4.3,20.2,8.4,40.4,13.2,60.6,6.7,28-10.4,54.9-41.2,61.1-15.2,3-30.2,1.7-45.4.2-18.8-1.9-37.1-6-54.8-12.6-37.6-14-70.3-35.8-98.6-64.4-18.5-18.7-32.8-40.4-47.6-61.9-6.6-9.5-13.9-18.7-18.8-29.3-8.9-19.9-9.5-40.2-3.6-61.1,16.9-58.7,42.6-113,79.7-161.6,24.4-32,55.1-55.1,94.6-65.3,20.6-5.4,41.4-6.5,62.9-3.2M127.5,355.3c-5.7,1.8-11.6,3.5-17.3,5.3,0,.7,0,1,.2,1.3.7,1,1.4,2.1,2.2,3.1,26.1,33.2,59.1,56.8,98.5,71.6,25.1,9.4,51.1,13.6,77.9,12.6,11.1-.4,17.1-7,15.1-17.7-2.7-14.4-6.2-28.7-9-43.3-2.4-12.3-6.4-24.5-4.3-37.5,3.2-20.7,17.4-43.6,48.6-44.1,12.3-.2,24.8,0,37.1-1.6,26.7-3.1,48.2-14.9,64-36.8,10.3-14.3,14.8-30.6,17.5-47.7,1.6-10.1-1.5-15.9-10.8-19.6-32.9-13-60.8-33-84-59.7-12.5-14.5-24.5-29.4-37.6-43.4-29.9-32-66.5-40.8-108.2-31.8-30.5,6.6-54,24.4-73.1,48.3-33.4,41.8-56.8,89-73.3,139.8-3.8,11.7-7,23.6-5.6,36,2.1,17.3,15.5,34,37.1,32.6,18.9-1.3,35.1-9.9,47.4-24.3,23.7-27.7,35.6-60.4,39.4-96.4.8-8.1,0-16.3,1.7-24.3,2.3-10.2,9.8-15.7,20.3-14.8,9.8.9,16.1,8.2,16.2,18.6,0,9.9-.7,19.7-1.8,29.6-3.3,28.4-11.3,55.2-25.1,80.2-16.5,29.9-39.4,52.6-73,64.3v-.2Z"/>
</svg>
